PathFileType	4	(X/Y/Z)	C:/Users/opensim2020/Desktop/walking_exp_matlab/subject02_walking05_straight_04.trc																																																																																																																												
DataRate	CameraRate	NumFrames	NumMarkers	Units	OrigDataRate	OrigDataStartFrame	OrigNumFrames																																																																																																																								
100	100	8	42	mm	100	2846	220																																																																																																																								
Frame#	Time	LFHD			RFHD			LBHD			RBHD			C7			T10			CLAV			STRN			RBAK			LSHO			LUPA			LELB			LFRM			LWRA			LWRB			LFIN			RSHO			RUPA			RELB			RFRM			RWRA			RWRB			RFIN			LASI			RASI			LPSI			RPSI			LTHI			LKNE			LTIB			LANK			LHEE			LTOE			RTHI			RKNE			RTIB			RANK			RHEE			RTOE			*39			*40			*41		
		X1	Y1	Z1	X2	Y2	Z2	X3	Y3	Z3	X4	Y4	Z4	X5	Y5	Z5	X6	Y6	Z6	X7	Y7	Z7	X8	Y8	Z8	X9	Y9	Z9	X10	Y10	Z10	X11	Y11	Z11	X12	Y12	Z12	X13	Y13	Z13	X14	Y14	Z14	X15	Y15	Z15	X16	Y16	Z16	X17	Y17	Z17	X18	Y18	Z18	X19	Y19	Z19	X20	Y20	Z20	X21	Y21	Z21	X22	Y22	Z22	X23	Y23	Z23	X24	Y24	Z24	X25	Y25	Z25	X26	Y26	Z26	X27	Y27	Z27	X28	Y28	Z28	X29	Y29	Z29	X30	Y30	Z30	X31	Y31	Z31	X32	Y32	Z32	X33	Y33	Z33	X34	Y34	Z34	X35	Y35	Z35	X36	Y36	Z36	X37	Y37	Z37	X38	Y38	Z38	X39	Y39	Z39	X40	Y40	Z40	X41	Y41	Z41	X42	Y42	Z42
																																																																																																																															
111	1.1	8.8444	1713.03772	-1531.34924	-0.9984	1694.48303	-1388.67688	-125.69408	1647.06982	-1547.24341	-147.91122	1628.6781	-1406.17004	-191.55026	1504.40283	-1464.29468	-242.90936	1227.20093	-1449.40381	-53.34114	1433.31995	-1484.6665	-0.33354	1264.40442	-1466.71729	-244.30632	1331.5874	-1387.88599	-141.11317	1465.10522	-1648.07947	-196.14313	1267.90247	-1715.72852	-225.46739	1130.69055	-1718.19934	-248.77425	1002.12634	-1732.54199	-217.47787	864.71967	-1714.40466	-267.44144	880.24554	-1736.90161	-267.3168	812.83649	-1741.47522	-99.71303	1479.58887	-1284.02295	-91.36188	1293.64648	-1186.96899	-37.23675	1156.44324	-1156.38733	43.92737	1064.49768	-1149.70203	141.30812	978.2276	-1183.28918	107.65147	951.35663	-1146.39478	172.04773	919.33929	-1150.53247	8.93116	975.80731	-1580.98145	-8.41515	949.96051	-1321.42175	-208.31934	1009.99597	-1513.8584	-219.84967	1005.95264	-1400.81372	8.58096	675.58026	-1647.40137	38.23395	477.08841	-1615.43408	31.24196	282.71896	-1621.60938	78.00569	67.30632	-1587.20569	45.92977	39.1097	-1535.47278	234.50089	38.61155	-1592.00281	-161.69043	660.50208	-1263.19495	-220.72575	459.7905	-1293.4657	-349.61954	319.20886	-1295.46594	-455.49512	156.9084	-1330.98584	-504.18442	123.79088	-1391.01672	-345.82397	36.65405	-1315.49683	-93.39507	1785.75354	-1446.99451	-2845.11743	1033.73157	3360.18457	NaN	NaN	NaN
112	1.11	18.98392	1713.98193	-1533.77417	8.99636	1695.03284	-1390.7655	-115.69237	1648.06116	-1549.86389	-138.08261	1629.58105	-1408.69836	-181.75766	1505.33752	-1466.50769	-232.05681	1227.51025	-1451.51428	-44.66488	1433.97559	-1486.66064	10.26171	1265.87683	-1469.29272	-233.60167	1331.67444	-1390.00195	-130.97771	1465.74365	-1650.5863	-183.86304	1267.85132	-1718.7207	-211.98656	1130.43738	-1721.61841	-233.40604	1001.40198	-1735.77625	-200.56989	864.71082	-1717.51624	-250.36298	879.30359	-1740.17419	-249.37646	812.0224	-1744.90479	-89.47206	1480.36414	-1286.02344	-81.37547	1293.63599	-1189.69458	-29.01253	1156.08386	-1159.61975	51.44805	1063.1604	-1152.56763	147.44835	975.84125	-1186.27283	113.5041	949.48328	-1149.43298	177.40114	916.63239	-1153.38721	20.62907	977.37885	-1584.50757	4.05372	950.55884	-1325.3501	-196.78027	1011.78845	-1516.48657	-207.28448	1006.56775	-1402.87195	20.46281	676.86847	-1649.17053	48.88934	477.92651	-1616.56372	38.77184	283.55341	-1623.53772	79.97688	67.68436	-1587.05005	46.54509	39.40269	-1535.78125	236.34369	37.27204	-1590.52087	-148.17184	661.06482	-1264.81958	-205.28101	460.40973	-1291.599	-337.70447	323.32443	-1294.81116	-447.61221	163.97281	-1330.42981	-495.9671	133.17778	-1391.4082	-344.90546	36.6831	-1315.40967	-83.13237	1786.42444	-1449.20093	-2845.23315	1033.82837	3360.2832	NaN	NaN	NaN
113	1.12	29.1067	1714.83826	-1536.02014	18.91441	1695.90491	-1393.01636	-105.47118	1649.09326	-1551.97803	-128.1577	1630.67188	-1411.06506	-172.03214	1506.18945	-1468.35046	-221.43271	1227.995	-1453.55273	-34.85186	1435.29736	-1488.96545	20.82967	1267.50708	-1471.85278	-223.78508	1332.13196	-1392.47009	-120.93827	1466.71375	-1652.94189	-171.20697	1267.93481	-1721.60913	-197.74323	1130.1311	-1724.49243	-217.53229	1001.16797	-1739.19287	-182.95042	864.86481	-1720.48633	-232.84297	878.85254	-1743.61389	-230.82657	811.49957	-1748.33972	-79.06665	1481.49194	-1287.9989	-73.0531	1294.12073	-1192.71667	-20.96267	1155.99976	-1162.94995	58.05043	1062.07837	-1155.82935	153.05956	973.48669	-1189.19946	118.78721	947.55573	-1152.41736	182.11069	913.91302	-1156.15039	31.95953	979.45862	-1588.01355	16.30547	951.54114	-1329.62634	-185.58508	1013.48694	-1518.97107	-194.78221	1007.44177	-1404.6366	32.53168	678.12152	-1651.01624	58.75226	478.42453	-1617.63684	44.97701	284.33713	-1624.02124	81.51969	67.66953	-1586.96716	47.01679	39.65611	-1536.02173	237.96379	36.23665	-1589.80347	-134.21956	661.55798	-1266.61499	-188.60905	460.67023	-1289.71899	-324.30481	327.19693	-1293.79102	-438.24261	171.29417	-1330.09778	-486.1424	142.86726	-1391.97607	-343.38818	36.5541	-1315.48364	-73.20635	1787.64526	-1451.82373	-2845.22852	1033.80896	3360.30249	NaN	NaN	NaN
114	1.13	39.18766	1715.66968	-1538.21948	28.78553	1696.9364	-1395.41943	-95.53491	1650.22595	-1554.25623	-118.73339	1631.93823	-1413.49365	-162.41132	1507.07373	-1469.94641	-210.86519	1228.55542	-1455.4845	-25.17253	1436.67371	-1491.15002	31.40458	1269.16968	-1474.42627	-212.76646	1332.50708	-1393.89673	-111.11699	1467.90283	-1655.10486	-158.92242	1268.59766	-1724.62537	-183.30251	1130.28809	-1727.64905	-201.15623	1001.04877	-1742.59167	-164.73943	865.09412	-1723.03418	-214.45282	878.36584	-1747.21533	-211.5318	811.26764	-1751.94324	-68.76317	1482.86133	-1290.12634	-63.75101	1294.69299	-1195.68457	-13.13883	1156.32117	-1166.32312	64.2045	1061.16663	-1159.26355	158.35403	971.27191	-1192.01453	123.52576	945.75385	-1155.4093	186.18593	911.14642	-1158.90308	43.07323	982.10205	-1591.45898	28.25345	952.7392	-1334.18152	-174.507	1014.93591	-1521.32288	-182.58409	1008.43829	-1406.37756	44.4986	679.11646	-1653.25793	67.1563	478.86951	-1619.00818	50.00065	285.20938	-1624.10449	82.19462	67.7507	-1586.76245	47.29221	40.09926	-1535.81616	238.90161	35.41149	-1589.77783	-119.95708	661.81042	-1268.30017	-170.76894	460.61771	-1287.79529	-309.54904	330.80399	-1292.51831	-427.20203	178.32845	-1329.88794	-474.60309	152.73375	-1392.71619	-341.88901	36.65344	-1316.23462	-62.99517	1788.70203	-1454.20142	-2845.16748	1033.72705	3360.31519	NaN	NaN	NaN
115	1.14	49.2554	1716.43372	-1540.4032	38.67939	1697.80566	-1397.36646	-85.682	1651.42126	-1556.45361	-109.08572	1633.41577	-1415.63684	-152.85573	1507.97681	-1471.5553	-200.54262	1229.2533	-1457.51367	-15.2957	1438.22766	-1493.26489	41.84415	1270.84106	-1476.93018	-202.36073	1333.24597	-1395.62207	-101.45457	1469.30774	-1657.11096	-146.30107	1269.29797	-1727.51379	-168.76848	1130.74341	-1730.99194	-184.38156	1001.25989	-1746.16345	-146.037	865.86377	-1726.14148	-195.68002	878.36932	-1750.99402	-191.67763	811.31854	-1755.6178	-58.83883	1484.46875	-1292.40308	-54.60564	1296.04443	-1198.10889	-5.49589	1156.90076	-1169.68274	70.63248	1060.71057	-1162.48267	162.96301	968.854	-1194.90674	127.75127	944.07526	-1158.26685	189.65059	908.33954	-1161.7063	54.02966	984.96539	-1594.85193	39.73436	954.06146	-1338.74915	-163.50607	1016.09857	-1523.60706	-170.8593	1009.51245	-1408.17969	55.65432	679.87823	-1655.25769	74.19093	479.23871	-1620.36035	53.13687	285.79761	-1623.77112	82.52519	67.89431	-1586.45154	47.41037	39.87511	-1535.94788	239.71739	34.70723	-1589.32483	-105.47399	661.66248	-1269.96179	-152.03941	460.30698	-1286.24231	-293.60245	334.13132	-1291.15125	-414.53894	185.03159	-1329.45007	-461.54825	162.6144	-1393.0885	-340.22281	36.35602	-1317.1886	-52.74531	1789.97241	-1456.50085	-2845.92236	1033.97278	3357.38379	NaN	NaN	NaN
116	1.15	59.37315	1716.99963	-1542.06165	48.49838	1699.03149	-1399.60522	-75.92474	1652.67029	-1558.49634	-99.3671	1634.95483	-1417.57849	-143.44833	1508.9281	-1473.26892	-190.30966	1229.99023	-1459.58069	-5.64414	1439.77075	-1495.32446	52.23302	1272.58081	-1479.34558	-192.56155	1334.30798	-1397.5564	-91.99767	1470.8302	-1659.00647	-133.76399	1270.21143	-1730.28064	-154.0441	1131.38562	-1734.32507	-167.27748	1001.6983	-1749.7749	-126.94632	867.15265	-1729.53809	-176.27632	878.54822	-1754.76343	-171.11714	811.53094	-1759.3064	-48.57529	1486.13025	-1294.55359	-45.64939	1297.12488	-1201.30884	1.94419	1157.60364	-1173.09766	76.09617	1060.02417	-1165.51965	167.1701	966.62598	-1197.72656	131.58733	942.48254	-1161.09863	192.89189	905.77985	-1164.44397	64.7337	987.70575	-1598.01746	50.83758	955.45264	-1343.28467	-152.6057	1017.06244	-1525.87256	-159.75551	1010.59381	-1410.11829	65.77889	680.66211	-1657.28809	79.19752	479.20532	-1622.1322	54.56691	285.73395	-1623.42444	82.73902	67.77941	-1586.20117	47.25715	40.22786	-1536.05249	240.32201	34.15396	-1588.83936	-90.71048	661.03851	-1271.37354	-133.34177	459.38248	-1284.88147	-276.55032	337.05743	-1290.00928	-400.32309	191.17369	-1328.73486	-447.41003	172.27449	-1393.09314	-337.02951	37.41705	-1318.39343	-42.53825	1791.27844	-1458.7749	-2845.7915	1033.76636	3357.46021	NaN	NaN	NaN
117	1.16	69.37849	1718.06787	-1544.18542	58.37247	1700.19653	-1401.53528	-66.22543	1654.05469	-1560.51685	-89.64183	1636.56653	-1419.48621	-133.75684	1510.00317	-1475.16309	-180.07776	1230.90137	-1461.71484	4.2403	1441.42688	-1497.3418	62.52875	1274.31702	-1481.51965	-182.29163	1335.35925	-1399.00024	-82.55434	1472.40784	-1660.81311	-121.98225	1271.2085	-1732.54749	-139.17538	1132.19641	-1737.77673	-149.72931	1002.37842	-1753.54541	-107.2578	868.17261	-1732.48145	-156.57211	879.16144	-1758.78625	-150.06142	811.99396	-1763.06238	-38.62288	1487.79907	-1296.51819	-36.7121	1298.84985	-1203.73926	9.27596	1158.46228	-1176.47192	81.80883	1059.63	-1168.39368	171.13876	964.40521	-1200.46021	135.17807	940.93988	-1163.927	195.95094	902.95056	-1167.28259	75.01121	990.13916	-1600.90491	61.92019	956.96667	-1347.59241	-141.86377	1017.966	-1528.09155	-149.24272	1011.68689	-1412.17419	74.79056	681.57623	-1659.50342	82.93808	478.88071	-1624.00183	55.15047	285.33429	-1623.83496	82.85948	67.69872	-1586.18091	47.3715	39.93443	-1535.88904	240.66222	33.74166	-1588.70251	-75.65852	660.09442	-1272.76831	-113.57571	458.84351	-1283.91809	-258.45367	339.61182	-1289.20081	-385.34595	197.1187	-1328.09045	-432.65033	181.46352	-1392.83887	-331.94263	39.51609	-1319.95825	-32.37831	1792.60144	-1460.9093	-2845.83936	1033.97095	3357.38281	NaN	NaN	NaN
118	1.17	79.2059	1719.20239	-1546.23218	68.18762	1701.40601	-1403.31665	-56.42386	1655.51672	-1562.36646	-80.0225	1638.28369	-1421.30981	-124.33995	1511.27991	-1477.07471	-170.09312	1232.04382	-1463.87134	13.90036	1442.95752	-1499.22314	72.53915	1276.01904	-1483.53101	-172.43193	1336.88489	-1400.77661	-73.08694	1473.99304	-1662.54736	-108.53472	1272.3158	-1735.6731	-124.23415	1133.08167	-1741.21472	-132.06932	1003.07092	-1757.24255	-87.12635	869.89441	-1735.98621	-136.50264	879.79022	-1762.74561	-128.5372	812.78387	-1766.98022	-28.63846	1489.51868	-1298.57007	-27.84922	1300.37317	-1206.19275	16.27895	1159.20618	-1179.89722	87.44945	1059.58301	-1171.45959	175.41275	962.21527	-1202.83569	137.89893	939.67993	-1166.36096	197.94879	899.99274	-1169.82788	85.02197	992.10809	-1603.48816	71.78213	958.04419	-1351.0802	-131.32776	1018.99268	-1530.31702	-139.20444	1012.89618	-1414.32324	82.29305	682.23743	-1661.22363	86.01734	478.73514	-1626.00464	55.78914	285.21591	-1625.16516	82.8276	67.76416	-1586.53223	47.3317	40.20223	-1535.88867	240.85483	33.48491	-1588.50806	-60.16045	659.1358	-1274.16589	-93.63121	458.26471	-1283.20264	-239.3009	341.59186	-1288.52795	-369.69516	203.13379	-1327.59094	-417.39606	190.73355	-1392.89038	-324.03253	43.488	-1321.75183	-22.25414	1794.18872	-1463.02979	-2845.20068	1033.60962	3360.30859	NaN	NaN	NaN
